<?xml version="1.0" encoding="utf-8"?>
<svg xmlns="http://www.w3.org/2000/svg" viewBox="0 0 500 500" preserveAspectRatio="xMidYMid meet">
    <defs />
    <path class="big-triangle-1" d="M 0 0 L 250 250 L 500 0 L 0 0 Z" style="" />
    <path class="parallelogram" d="M 375 125 L 375 375 L 500 250 L 500 0 L 375 125 Z" style="" />
    <path class="small-triangle-1" d="M 250 250 L 375 375 L 375 125 L 250 250 Z" style="" />
    <path class="square" d="M 250 250 L 375 375 L 250 500 L 125 375 L 250 250 Z" style="" />
    <path class="small-triangle-2" d="M 0 500 L 250 500 L 125 375 L 0 500 Z" style="" />
    <path class="medium-triangle" d="M 250 500 L 500 250 L 500 500 L 250 500 Z" style="" />
    <path class="big-triangle-2" d="M 0 0 L 250 250 L 0 500 L 0 0 Z" style="" />
</svg>